<svg xmlns="http://www.w3.org/2000/svg" x="0px" y="0px"
width="40" height="40"
viewBox="0 0 172 172"
style=" fill:#000000;"><g fill="none" fill-rule="nonzero" stroke="none" stroke-width="1" stroke-linecap="butt" stroke-linejoin="miter" stroke-miterlimit="10" stroke-dasharray="" stroke-dashoffset="0" font-family="none" font-weight="none" font-size="none" text-anchor="none" style="mix-blend-mode: normal"><path d="M0,172v-172h172v172z" fill="none"></path><g fill="#ffffff"><path d="M86,6.88c-43.688,0 -79.12,35.432 -79.12,79.12c0,14.104 3.784,27.17331 10.32,38.52531l-10.32,36.12c-0.344,1.032 -0.00269,2.408 0.68531,3.44c1.032,1.032 2.408,1.03469 3.44,1.03469l37.84,-9.28531c11.008,5.848 23.73869,9.28531 37.15469,9.28531c43.688,0 79.12,-35.432 79.12,-79.12c0,-43.688 -35.432,-79.12 -79.12,-79.12zM86,13.76c39.904,0 72.24,32.336 72.24,72.24c0,39.904 -32.336,72.24 -72.24,72.24c-12.728,0 -24.76531,-3.43731 -35.08531,-9.28531c-0.688,-0.344 -1.72403,-0.69337 -2.41203,-0.34937l-33.02265,8.25734l8.6,-31.64531c0.344,-1.032 0.00134,-1.72269 -0.34266,-2.75469c-6.192,-10.664 -9.97734,-23.04665 -9.97734,-36.46265c0,-39.904 32.336,-72.24 72.24,-72.24zM62.30969,44.67969c-0.645,-0.043 -1.075,0.04031 -1.075,0.04031h-4.13203c-2.064,0 -5.15597,0.688 -7.90797,3.44c-1.72,1.72 -7.91469,7.912 -7.91469,18.92c0,11.696 7.91065,21.67065 8.94265,22.70265c0,0 1.37735,1.72403 3.09735,4.13203c1.72,2.408 4.12665,5.16 7.22265,8.6c6.192,6.536 14.792,14.09863 25.8,18.57063c4.816,2.064 8.944,3.44269 12.04,4.47469c5.504,1.72 10.66803,1.37869 14.45203,1.03469c2.752,-0.344 5.84666,-1.72537 8.94266,-3.78937c3.096,-2.064 6.18931,-4.46797 7.56531,-7.90797c1.032,-2.752 1.376,-5.15866 1.72,-7.22266v-2.75469c0,-1.032 -0.33997,-1.02931 -1.02797,-2.40531c-1.72,-2.752 -3.44537,-2.752 -5.50937,-3.44c-1.032,-0.688 -4.128,-2.064 -6.88,-3.44c-3.096,-1.376 -5.50266,-2.752 -7.22266,-3.44c-1.032,-0.344 -2.40531,-1.03603 -4.12531,-0.69203c-1.72,0.344 -3.44269,1.37735 -4.47469,3.09735c-1.032,1.376 -4.81197,6.18931 -6.18797,7.56531l-0.34937,-0.34266c-1.376,-0.688 -3.43731,-1.37197 -5.84531,-2.74797c-2.752,-1.376 -5.85069,-3.44 -9.63469,-6.88c-5.504,-4.816 -9.288,-10.66803 -10.32,-12.73203c1.032,-1.376 2.40934,-2.75065 3.09734,-3.78265c0.344,-0.344 0.6235,-0.69069 0.86,-1.03469c0.2365,-0.344 0.43269,-0.68397 0.60469,-1.02797c0.344,-0.688 0.60334,-1.37466 0.94734,-2.06266c1.376,-2.408 0.688,-5.16134 0,-6.53734c0,0 -0.34669,-1.03066 -1.03469,-2.06266c-0.344,-1.032 -1.032,-2.75603 -1.72,-4.13203c-1.376,-3.096 -2.752,-6.536 -3.44,-8.6c-1.032,-2.408 -2.40531,-4.12934 -4.12531,-4.81734c-0.86,-0.516 -1.72,-0.68263 -2.365,-0.72563zM57.10265,51.6h3.78266h0.69203c0,0 0.34131,0.34535 0.68531,1.37735c0.688,2.064 2.408,5.504 3.44,8.6c0.688,1.376 1.376,3.09331 1.72,4.12531c0.344,1.032 0.69069,1.72403 1.03469,2.41203c0,0.344 0.34265,0.34266 0.34265,0.34266c-0.688,1.376 -0.688,1.71597 -1.72,2.74797c-1.032,1.376 -2.41069,2.752 -2.75469,3.44c-0.344,0.688 -1.37466,1.37869 -2.06266,2.75469c-0.688,1.376 -0.33997,3.78265 0.69203,5.50265c1.376,2.064 5.504,8.94669 12.04,14.79469c4.128,3.784 7.90931,6.18931 11.00531,7.56531c3.096,1.72 5.50669,2.41069 6.19469,2.75469c1.376,0.688 2.74797,1.02797 4.46797,1.02797c1.72,0 3.10003,-1.37331 4.13203,-2.40531c1.376,-1.376 4.81063,-5.50535 6.53063,-8.25735l0.69203,0.34266c0,0 1.02931,0.34669 2.40531,1.03469c1.376,0.688 2.75469,1.37465 4.47469,2.06265c3.096,1.376 5.848,2.752 6.88,3.44l2.06265,1.03469v1.02797c0,1.376 -0.34669,3.44537 -1.03469,5.50937c-0.344,1.032 -2.40397,3.09197 -4.46797,4.46797c-2.408,1.376 -5.16269,2.41069 -6.19469,2.75469c-3.096,0.344 -6.87597,0.68397 -11.34797,-0.69203c-2.752,-1.032 -6.53869,-2.06131 -11.35469,-4.12531c-9.632,-4.128 -17.54669,-11.008 -23.39469,-17.2c-2.752,-3.096 -5.16,-5.85069 -6.88,-7.91469c-1.72,-2.064 -2.40263,-3.43731 -3.09063,-4.12531c-1.376,-1.376 -7.91469,-10.32135 -7.91469,-18.57735c0,-8.6 4.13069,-12.03731 6.19469,-14.44531c1.032,-1.376 2.40397,-1.37735 2.74797,-1.37735z"></path></g></g></svg>